<?xml version="1.0" standalone="no"?>
<!DOCTYPE svg PUBLIC "-//W3C//DTD SVG 20010904//EN"
 "http://www.w3.org/TR/2001/REC-SVG-20010904/DTD/svg10.dtd">
<svg version="1.0" xmlns="http://www.w3.org/2000/svg"
 width="700.000000pt" height="700.000000pt" viewBox="0 0 700.000000 700.000000"
 preserveAspectRatio="xMidYMid meet">
<metadata>
Created by potrace 1.14, written by Peter Selinger 2001-2017
</metadata>
<g transform="translate(0.000000,700.000000) scale(0.100000,-0.100000)"
fill="#000000" stroke="none">
<path d="M2093 6754 c-301 -65 -545 -314 -607 -616 -11 -51 -16 -130 -16 -237
l0 -159 -49 -32 c-92 -58 -151 -141 -172 -240 l-11 -50 -468 0 c-441 0 -472
-1 -533 -20 -84 -26 -164 -96 -204 -178 l-28 -57 0 -2340 0 -2340 33 -67 c36
-73 87 -124 161 -160 l46 -23 3255 0 3255 0 46 23 c74 36 125 87 161 160 l33
67 0 2340 0 2340 -28 57 c-40 82 -120 152 -204 178 -61 19 -92 20 -533 20
l-469 0 -11 58 c-7 31 -21 74 -32 95 -25 51 -95 120 -147 147 l-41 20 0 161
c0 176 -14 269 -57 377 -76 189 -249 360 -443 439 -136 54 -88 53 -1535 52
-1094 -1 -1351 -4 -1402 -15z m2779 -223 c42 -11 98 -31 125 -45 124 -62 231
-187 280 -326 23 -66 27 -95 31 -237 l5 -163 -117 0 -116 0 0 85 c0 105 -14
174 -51 245 -53 103 -139 177 -245 210 -65 20 -89 20 -1284 20 -1366 0 -1274
5 -1392 -73 -126 -84 -188 -214 -188 -394 l0 -93 -115 0 -115 0 0 123 c0 67 5
150 10 185 37 228 217 418 442 467 51 11 303 14 1359 14 1250 1 1298 0 1371
-18z m-161 -442 c101 -34 140 -100 147 -245 l4 -101 -53 -30 c-96 -55 -159
-145 -174 -245 l-7 -48 -1127 0 -1127 0 -12 58 c-22 106 -76 181 -171 235
l-53 30 4 101 c7 143 46 210 143 244 44 15 2380 16 2426 1z m-2621 -576 c28
-19 42 -38 52 -70 l6 -23 -339 0 c-338 0 -339 0 -339 21 0 12 15 36 34 55 l34
34 264 0 c231 0 267 -2 288 -17z m3406 -17 c19 -19 34 -43 34 -55 0 -21 -1
-21 -339 -21 l-339 0 5 23 c8 31 29 59 55 74 17 9 94 12 287 13 l263 0 34 -34z
m1242 -335 c17 -18 32 -45 35 -68 12 -67 8 -1371 -3 -1378 -9 -5 -1099 -154
-1219 -167 l-34 -3 -38 93 c-194 477 -575 882 -1044 1112 -443 216 -952 271
-1440 155 -655 -155 -1216 -639 -1475 -1270 l-37 -90 -34 3 c-114 12 -1211
162 -1219 167 -11 7 -14 1312 -3 1378 3 23 18 50 35 68 l30 29 3208 0 3208 0
30 -29z m-3704 -501 c-29 -29 -31 -30 -68 -17 l-39 13 64 16 c35 9 66 17 69
17 2 1 -9 -13 -26 -29z m1076 -22 c109 -35 283 -115 385 -177 82 -50 245 -171
245 -182 0 -21 -301 -225 -318 -215 -5 3 -32 45 -60 95 -82 144 -189 286 -310
412 -128 134 -133 129 58 67z m-720 -404 l0 -416 -37 6 c-21 3 -65 8 -98 11
-94 10 -241 42 -345 76 -129 41 -128 40 -106 81 18 33 19 33 89 33 124 1 225
66 279 180 32 69 38 164 14 233 l-15 41 62 54 c85 73 141 116 150 117 4 0 7
-187 7 -416z m318 348 c105 -83 243 -226 329 -343 72 -97 173 -258 173 -276 0
-28 -301 -110 -465 -128 -33 -3 -77 -8 -97 -11 l-38 -6 0 417 c0 253 4 415 9
413 5 -1 45 -31 89 -66z m-1106 -112 c-23 -46 -27 -68 -27 -135 0 -68 5 -88
28 -132 l27 -52 -22 -46 c-12 -25 -27 -45 -33 -45 -26 0 -315 202 -315 220 0
19 355 259 366 247 2 -1 -9 -27 -24 -57z m322 -54 c41 -17 62 -68 47 -109 -22
-58 -103 -76 -146 -32 -43 42 -27 123 29 145 29 12 32 12 70 -4z m-577 -485
c55 -36 109 -71 119 -76 16 -10 14 -19 -19 -120 -74 -224 -121 -462 -133 -682
l-7 -113 -359 0 -358 0 0 33 c0 60 30 232 61 347 71 266 209 532 380 730 l60
70 77 -62 c42 -34 123 -91 179 -127z m2718 -6 c133 -191 227 -390 284 -605 31
-115 61 -287 61 -347 l0 -33 -360 0 -360 0 0 48 c0 45 2 49 54 88 139 108 158
314 41 452 -32 38 -99 79 -157 96 -41 12 -42 14 -74 107 -18 52 -33 99 -34
105 0 6 43 37 96 70 53 32 139 93 192 136 l97 76 48 -51 c27 -29 77 -92 112
-142z m-2044 -279 c63 -14 166 -30 229 -37 63 -6 121 -13 128 -15 9 -3 12 -77
12 -329 l0 -325 -429 0 -430 0 5 58 c22 265 54 442 114 627 l40 122 109 -38
c60 -21 160 -49 222 -63z m1315 19 l28 -85 -41 -43 c-62 -63 -88 -126 -88
-217 0 -55 6 -87 22 -122 29 -64 92 -130 152 -158 48 -22 51 -25 51 -62 l0
-38 -425 0 -425 0 0 325 c0 252 3 326 13 329 6 2 64 9 127 15 63 7 166 23 228
37 105 23 307 86 320 98 9 10 10 8 38 -79z m-3503 -260 c309 -42 567 -77 573
-79 7 -3 5 -32 -7 -91 -39 -195 -51 -468 -29 -655 72 -591 379 -1124 850
-1474 356 -266 758 -407 1205 -423 583 -21 1133 189 1554 593 359 344 580 780
647 1274 27 202 17 480 -25 685 -12 59 -14 88 -7 91 16 5 1136 154 1163 154
l23 0 -1 -1457 c0 -1102 -3 -1466 -12 -1493 -7 -19 -27 -44 -46 -57 l-34 -23
-3186 0 c-2509 0 -3191 3 -3210 13 -13 6 -34 25 -45 40 l-21 28 -3 1475 -2
1474 25 0 c14 0 278 -34 588 -75z m3770 -15 c68 -54 25 -160 -64 -160 -32 0
-79 53 -79 90 0 42 47 90 88 90 16 0 41 -9 55 -20z m-2293 -743 c0 -197 60
-516 143 -762 17 -50 26 -90 20 -92 -28 -10 -191 -117 -281 -185 -56 -43 -104
-78 -105 -78 -9 0 -152 186 -201 262 -154 237 -268 564 -292 841 l-7 77 362 0
361 0 0 -63z m1080 -267 c0 -191 -4 -330 -9 -330 -5 0 -38 29 -73 63 -79 80
-136 102 -242 95 -140 -9 -240 -92 -281 -231 -12 -43 -21 -56 -39 -61 -14 -3
-31 -8 -39 -12 -48 -18 -167 514 -167 743 l0 63 425 0 425 0 0 -330z m1072
283 c-9 -177 -43 -404 -78 -533 -24 -86 -66 -214 -73 -222 -3 -4 -58 11 -121
32 -149 50 -316 86 -462 102 l-118 12 0 328 0 328 428 0 427 0 -3 -47z m944
-30 c-26 -281 -140 -608 -296 -848 -47 -71 -188 -255 -197 -255 -1 0 -49 35
-105 78 -90 68 -253 175 -281 185 -5 1 11 66 36 143 71 222 127 533 127 711
l0 63 361 0 362 0 -7 -77z m-2287 -654 c93 -33 64 -169 -36 -169 -91 0 -115
136 -29 170 28 12 28 12 65 -1z m747 -190 c98 -19 305 -80 333 -98 38 -24
-202 -366 -365 -522 -57 -53 -211 -179 -220 -179 -2 0 -4 187 -4 416 l0 417
78 -7 c42 -4 123 -16 178 -27z m-481 -787 c-17 -17 -260 205 -365 333 -82 101
-230 326 -230 351 0 3 10 8 22 13 17 6 29 0 58 -29 60 -60 122 -84 215 -85 61
0 91 5 126 22 60 27 125 86 152 137 l22 41 3 -389 c1 -214 0 -391 -3 -394z
m-717 429 c80 -129 181 -259 289 -371 110 -115 113 -112 -67 -54 -187 61 -465
214 -594 326 l-40 35 55 43 c30 24 101 74 159 112 l105 68 20 -36 c11 -20 44
-75 73 -123z m1892 72 c36 -23 92 -63 124 -89 l60 -47 -40 -35 c-132 -114
-401 -262 -594 -325 -180 -59 -177 -61 -79 40 141 145 288 344 360 486 l30 58
37 -22 c20 -13 66 -42 102 -66z"/>
</g>
</svg>
